<svg xmlns="http://www.w3.org/2000/svg" viewBox="0 0 24 24" width="24" height="24">
  <g transform="translate(-604.1054 -1005.1184) scale(1.36893)">
    <path fill="currentColor" d="M450.13,737.87c.35,0,.69-.29.76-.64s-.18-.64-.53-.64l-.23,1.29ZM456.18,743.65c.06-.35-.18-.64-.53-.64s-.69.29-.76.64h1.29ZM449.87,742.23c-.29.25-.37.66-.16.91s.61.25.91,0l-.75-.91ZM456.67,737.22h.64c.06-.35-.18-.64-.53-.64l-.11.64ZM452.93,736.58c-.35,0-.69.29-.76.64s.18.64.53.64l.23-1.29ZM455.35,741.08c-.06.35.18.64.53.64s.69-.29.76-.64h-1.29ZM444.38,744.94l.68-3.86h-1.29l-.68,3.86h1.29ZM447.03,748.15c-.93,0-1.56,0-2.02-.06-.45-.06-.63-.17-.75-.32l-1.07.91c.35.42.85.6,1.42.68.56.08,1.3.08,2.19.08l.23-1.29h0ZM443.1,744.94c-.16.89-.29,1.63-.31,2.2-.03.6.06,1.13.4,1.55l1.07-.91c-.12-.14-.19-.35-.17-.8.02-.48.13-1.11.29-2.03h-1.29,0ZM454.67,744.94c-.16.93-.27,1.56-.42,2.03-.14.45-.28.66-.45.8l.75.91c.5-.42.77-.95.95-1.55.18-.57.31-1.31.46-2.2h-1.29,0ZM450.66,749.44c.89,0,1.63,0,2.21-.08.61-.08,1.17-.26,1.66-.68l-.75-.91c-.17.15-.4.25-.87.32-.48.06-1.12.06-2.04.06l-.23,1.29h0ZM449.07,736.58c-.89,0-1.63,0-2.22.08-.61.08-1.17.26-1.66.68l.75.91c.17-.15.4-.25.87-.32.49-.06,1.12-.06,2.04-.06l.23-1.29h0ZM445.06,741.08c.16-.93.27-1.56.42-2.03.14-.45.28-.66.46-.8l-.75-.91c-.5.42-.77.95-.95,1.54-.18.58-.31,1.31-.47,2.21h1.29,0ZM448.84,737.87h1.29l.23-1.29h-1.29l-.23,1.29ZM454.89,743.65l-.23,1.29h1.29l.23-1.29h-1.29ZM450.62,743.14l6.43-5.46-.75-.91-6.43,5.46.75.91ZM456.78,736.58h-3.86l-.23,1.29h3.86l.23-1.29ZM456.03,737.22l-.68,3.86h1.29l.68-3.86h-1.29ZM450.89,748.15h-3.86l-.23,1.29h3.86l.23-1.29Z"/>
  </g>
</svg>
